<svg width="173" height="50" viewBox="0 0 173 50" fill="none" xmlns="http://www.w3.org/2000/svg">
<path d="M165.63 50H6.37037C2.86826 50 0 47.1859 0 43.75V6.25C0 2.81407 2.86826 4.76837e-06 6.37037 4.76837e-06H165.63C169.132 4.76837e-06 172 2.81407 172 6.25V43.75C172 47.1859 169.132 50 165.63 50Z" fill="white"/>
<path d="M166.593 1.00156C169.559 1.00156 171.973 3.35626 171.973 6.25V43.75C171.973 46.6438 169.559 48.9984 166.593 48.9984H6.40741C3.44078 48.9984 1.02679 46.6438 1.02679 43.75V6.25C1.02679 3.35626 3.44078 1.00156 6.40741 1.00156H166.593ZM166.593 4.76837e-06H6.40741C2.88493 4.76837e-06 0 2.81407 0 6.25V43.75C0 47.1859 2.88493 50 6.40741 50H166.593C170.115 50 173 47.1859 173 43.75V6.25C173 2.81407 170.115 4.76837e-06 166.593 4.76837e-06Z" fill="#F4F2F0"/>
<path d="M34.0323 26.0134C33.9951 21.9847 37.4141 20.0247 37.5705 19.9334C35.6341 17.1797 32.6329 16.8034 31.5783 16.7734C29.0576 16.5147 26.6125 18.2447 25.3285 18.2447C24.0188 18.2447 22.0415 16.7984 19.9104 16.8409C17.168 16.8822 14.6025 18.4309 13.1954 20.8359C10.2916 25.7397 12.4573 32.9459 15.2394 36.9097C16.6311 38.8509 18.2573 41.0184 20.3858 40.9422C22.4682 40.8584 23.2461 39.6472 25.7591 39.6472C28.249 39.6472 28.9794 40.9422 31.1502 40.8934C33.3851 40.8584 34.7922 38.9434 36.1352 36.9847C37.7435 34.7597 38.3893 32.5684 38.415 32.4559C38.3624 32.4384 34.0746 30.8422 34.0323 26.0134Z" fill="#1E0F09"/>
<path d="M29.9316 14.1659C31.0516 12.7997 31.8179 10.9409 31.6052 9.05469C29.9841 9.12469 27.9568 10.1484 26.7894 11.4847C25.7565 12.6622 24.8338 14.5922 25.0722 16.4072C26.8932 16.5397 28.7628 15.5109 29.9316 14.1659Z" fill="#1E0F09"/>
<path d="M52.539 19.144C51.907 19.144 51.323 19.032 50.787 18.808C50.251 18.576 49.787 18.252 49.395 17.836C49.003 17.42 48.695 16.932 48.471 16.372C48.255 15.812 48.147 15.2 48.147 14.536C48.147 13.864 48.255 13.248 48.471 12.688C48.687 12.128 48.991 11.64 49.383 11.224C49.775 10.808 50.239 10.488 50.775 10.264C51.311 10.032 51.895 9.916 52.527 9.916C53.143 9.916 53.695 10.024 54.183 10.24C54.679 10.456 55.095 10.736 55.431 11.08C55.775 11.424 56.019 11.792 56.163 12.184L55.107 12.7C54.899 12.18 54.575 11.768 54.135 11.464C53.695 11.16 53.159 11.008 52.527 11.008C51.903 11.008 51.347 11.156 50.859 11.452C50.379 11.748 50.003 12.16 49.731 12.688C49.459 13.216 49.323 13.832 49.323 14.536C49.323 15.232 49.459 15.844 49.731 16.372C50.011 16.9 50.391 17.312 50.871 17.608C51.359 17.904 51.915 18.052 52.539 18.052C53.083 18.052 53.575 17.936 54.015 17.704C54.455 17.472 54.803 17.152 55.059 16.744C55.315 16.336 55.443 15.864 55.443 15.328V14.776L55.983 15.28H52.527V14.26H56.631V15.052C56.631 15.676 56.523 16.24 56.307 16.744C56.091 17.248 55.795 17.68 55.419 18.04C55.043 18.392 54.607 18.664 54.111 18.856C53.615 19.048 53.091 19.144 52.539 19.144ZM58.2196 19V10.06H64.0396V11.14H59.3956V13.972H63.7996V15.052H59.3956V17.92H64.0396V19H58.2196ZM67.057 19V11.14H64.633V10.06H70.633V11.14H68.245V19H67.057ZM73.8407 19V10.06H75.0167V19H73.8407ZM78.5648 19V11.14H76.1408V10.06H82.1408V11.14H79.7528V19H78.5648ZM89.6205 19.144C88.9885 19.144 88.3965 19.032 87.8445 18.808C87.2925 18.576 86.8085 18.252 86.3925 17.836C85.9845 17.42 85.6645 16.932 85.4325 16.372C85.2005 15.804 85.0845 15.188 85.0845 14.524C85.0845 13.852 85.2005 13.236 85.4325 12.676C85.6645 12.116 85.9845 11.628 86.3925 11.212C86.8085 10.796 87.2885 10.476 87.8325 10.252C88.3845 10.028 88.9805 9.916 89.6205 9.916C90.2605 9.916 90.8525 10.032 91.3965 10.264C91.9485 10.488 92.4285 10.808 92.8365 11.224C93.2525 11.632 93.5765 12.116 93.8085 12.676C94.0485 13.236 94.1685 13.852 94.1685 14.524C94.1685 15.188 94.0485 15.804 93.8085 16.372C93.5765 16.932 93.2525 17.42 92.8365 17.836C92.4285 18.252 91.9485 18.576 91.3965 18.808C90.8525 19.032 90.2605 19.144 89.6205 19.144ZM89.6205 18.052C90.1165 18.052 90.5685 17.964 90.9765 17.788C91.3845 17.604 91.7365 17.352 92.0325 17.032C92.3365 16.704 92.5685 16.328 92.7285 15.904C92.8965 15.472 92.9805 15.012 92.9805 14.524C92.9805 14.036 92.8965 13.58 92.7285 13.156C92.5685 12.732 92.3365 12.36 92.0325 12.04C91.7365 11.712 91.3845 11.46 90.9765 11.284C90.5685 11.1 90.1165 11.008 89.6205 11.008C89.1325 11.008 88.6845 11.1 88.2765 11.284C87.8685 11.46 87.5125 11.712 87.2085 12.04C86.9125 12.36 86.6805 12.732 86.5125 13.156C86.3445 13.58 86.2605 14.036 86.2605 14.524C86.2605 15.012 86.3445 15.472 86.5125 15.904C86.6805 16.328 86.9125 16.704 87.2085 17.032C87.5125 17.352 87.8685 17.604 88.2765 17.788C88.6845 17.964 89.1325 18.052 89.6205 18.052ZM95.8837 19V10.06H96.8677L102.004 17.284L101.56 17.332V10.06H102.748V19H101.764L96.6517 11.728L97.0597 11.68V19H95.8837Z" fill="#1E0F09"/>
<path d="M47.569 40L51.167 29.57H53.631L57.229 40H55.157L54.415 37.76H50.383L49.627 40H47.569ZM50.929 36.08H53.869L52.133 30.886H52.665L50.929 36.08ZM58.2358 42.8V32.384H59.9578V33.896L59.7898 33.518C60.0512 33.1073 60.4058 32.79 60.8538 32.566C61.3018 32.3327 61.8198 32.216 62.4078 32.216C63.1265 32.216 63.7752 32.3933 64.3538 32.748C64.9325 33.1027 65.3898 33.5787 65.7258 34.176C66.0712 34.7733 66.2438 35.4453 66.2438 36.192C66.2438 36.9293 66.0758 37.6013 65.7398 38.208C65.4038 38.8147 64.9465 39.2953 64.3678 39.65C63.7892 39.9953 63.1312 40.168 62.3938 40.168C61.8432 40.168 61.3345 40.0607 60.8678 39.846C60.4105 39.622 60.0465 39.3047 59.7758 38.894L60.0698 38.53V42.8H58.2358ZM62.1838 38.488C62.6038 38.488 62.9772 38.39 63.3038 38.194C63.6305 37.998 63.8825 37.7273 64.0598 37.382C64.2465 37.0367 64.3398 36.64 64.3398 36.192C64.3398 35.744 64.2465 35.352 64.0598 35.016C63.8825 34.6707 63.6305 34.4 63.3038 34.204C62.9772 33.9987 62.6038 33.896 62.1838 33.896C61.7825 33.896 61.4185 33.994 61.0918 34.19C60.7745 34.386 60.5225 34.6613 60.3358 35.016C60.1585 35.3613 60.0698 35.7533 60.0698 36.192C60.0698 36.64 60.1585 37.0367 60.3358 37.382C60.5225 37.7273 60.7745 37.998 61.0918 38.194C61.4185 38.39 61.7825 38.488 62.1838 38.488ZM67.6421 42.8V32.384H69.3641V33.896L69.1961 33.518C69.4574 33.1073 69.8121 32.79 70.2601 32.566C70.7081 32.3327 71.2261 32.216 71.8141 32.216C72.5328 32.216 73.1814 32.3933 73.7601 32.748C74.3388 33.1027 74.7961 33.5787 75.1321 34.176C75.4774 34.7733 75.6501 35.4453 75.6501 36.192C75.6501 36.9293 75.4821 37.6013 75.1461 38.208C74.8101 38.8147 74.3528 39.2953 73.7741 39.65C73.1954 39.9953 72.5374 40.168 71.8001 40.168C71.2494 40.168 70.7408 40.0607 70.2741 39.846C69.8168 39.622 69.4528 39.3047 69.1821 38.894L69.4761 38.53V42.8H67.6421ZM71.5901 38.488C72.0101 38.488 72.3834 38.39 72.7101 38.194C73.0368 37.998 73.2888 37.7273 73.4661 37.382C73.6528 37.0367 73.7461 36.64 73.7461 36.192C73.7461 35.744 73.6528 35.352 73.4661 35.016C73.2888 34.6707 73.0368 34.4 72.7101 34.204C72.3834 33.9987 72.0101 33.896 71.5901 33.896C71.1888 33.896 70.8248 33.994 70.4981 34.19C70.1808 34.386 69.9288 34.6613 69.7421 35.016C69.5648 35.3613 69.4761 35.7533 69.4761 36.192C69.4761 36.64 69.5648 37.0367 69.7421 37.382C69.9288 37.7273 70.1808 37.998 70.4981 38.194C70.8248 38.39 71.1888 38.488 71.5901 38.488ZM83.4146 40.168C82.752 40.168 82.136 40.0467 81.5666 39.804C81.0066 39.5613 80.5213 39.2253 80.1106 38.796C79.7093 38.3573 79.4153 37.8487 79.2286 37.27L80.8106 36.584C81.0626 37.1813 81.4266 37.6527 81.9026 37.998C82.3786 38.334 82.9153 38.502 83.5126 38.502C83.8486 38.502 84.138 38.4507 84.3806 38.348C84.6326 38.236 84.824 38.0867 84.9546 37.9C85.0946 37.7133 85.1646 37.4893 85.1646 37.228C85.1646 36.92 85.0713 36.668 84.8846 36.472C84.7073 36.2667 84.4366 36.108 84.0726 35.996L82.0706 35.352C81.2586 35.1 80.6473 34.722 80.2366 34.218C79.826 33.714 79.6206 33.1213 79.6206 32.44C79.6206 31.8427 79.7653 31.3153 80.0546 30.858C80.3533 30.4007 80.764 30.046 81.2866 29.794C81.8186 29.5327 82.4253 29.402 83.1066 29.402C83.732 29.402 84.306 29.514 84.8286 29.738C85.3513 29.9527 85.7993 30.256 86.1726 30.648C86.5553 31.0307 86.84 31.4833 87.0266 32.006L85.4586 32.706C85.2533 32.1833 84.9453 31.782 84.5346 31.502C84.124 31.2127 83.648 31.068 83.1066 31.068C82.7893 31.068 82.5093 31.124 82.2666 31.236C82.024 31.3387 81.8326 31.488 81.6926 31.684C81.562 31.8707 81.4966 32.0947 81.4966 32.356C81.4966 32.6453 81.59 32.902 81.7766 33.126C81.9633 33.3407 82.248 33.5087 82.6306 33.63L84.5486 34.232C85.3793 34.5027 86 34.876 86.4106 35.352C86.8306 35.828 87.0406 36.416 87.0406 37.116C87.0406 37.7133 86.8866 38.2407 86.5786 38.698C86.2706 39.1553 85.846 39.5147 85.3046 39.776C84.7633 40.0373 84.1333 40.168 83.4146 40.168ZM92.0731 40.084C91.2144 40.084 90.5471 39.8507 90.0711 39.384C89.6044 38.908 89.3711 38.2407 89.3711 37.382V34.022H88.0551V32.384H88.1951C88.5684 32.384 88.8577 32.286 89.0631 32.09C89.2684 31.894 89.3711 31.6093 89.3711 31.236V30.648H91.2051V32.384H92.9551V34.022H91.2051V37.284C91.2051 37.536 91.2471 37.7507 91.3311 37.928C91.4244 38.1053 91.5644 38.2407 91.7511 38.334C91.9471 38.4273 92.1944 38.474 92.4931 38.474C92.5584 38.474 92.6331 38.4693 92.7171 38.46C92.8104 38.4507 92.8991 38.4413 92.9831 38.432V40C92.8524 40.0187 92.7031 40.0373 92.5351 40.056C92.3671 40.0747 92.2131 40.084 92.0731 40.084ZM98.0399 40.168C97.2932 40.168 96.6119 39.9953 95.9959 39.65C95.3892 39.3047 94.9039 38.8333 94.5399 38.236C94.1852 37.6387 94.0079 36.9573 94.0079 36.192C94.0079 35.4267 94.1852 34.7453 94.5399 34.148C94.9039 33.5507 95.3892 33.0793 95.9959 32.734C96.6026 32.3887 97.2839 32.216 98.0399 32.216C98.7866 32.216 99.4632 32.3887 100.07 32.734C100.677 33.0793 101.157 33.5507 101.512 34.148C101.876 34.736 102.058 35.4173 102.058 36.192C102.058 36.9573 101.876 37.6387 101.512 38.236C101.148 38.8333 100.663 39.3047 100.056 39.65C99.4492 39.9953 98.7772 40.168 98.0399 40.168ZM98.0399 38.488C98.4506 38.488 98.8099 38.39 99.1179 38.194C99.4352 37.998 99.6826 37.7273 99.8599 37.382C100.047 37.0273 100.14 36.6307 100.14 36.192C100.14 35.744 100.047 35.352 99.8599 35.016C99.6826 34.6707 99.4352 34.4 99.1179 34.204C98.8099 33.9987 98.4506 33.896 98.0399 33.896C97.6199 33.896 97.2512 33.9987 96.9339 34.204C96.6166 34.4 96.3646 34.6707 96.1779 35.016C96.0006 35.352 95.9119 35.744 95.9119 36.192C95.9119 36.6307 96.0006 37.0273 96.1779 37.382C96.3646 37.7273 96.6166 37.998 96.9339 38.194C97.2512 38.39 97.6199 38.488 98.0399 38.488ZM103.449 40V32.384H105.171V34.078L105.031 33.826C105.208 33.2567 105.483 32.86 105.857 32.636C106.239 32.412 106.697 32.3 107.229 32.3H107.677V33.924H107.019C106.496 33.924 106.076 34.0873 105.759 34.414C105.441 34.7313 105.283 35.1793 105.283 35.758V40H103.449ZM112.297 40.168C111.513 40.168 110.827 39.9907 110.239 39.636C109.651 39.2813 109.194 38.8007 108.867 38.194C108.54 37.5873 108.377 36.9153 108.377 36.178C108.377 35.4127 108.54 34.736 108.867 34.148C109.203 33.5507 109.656 33.0793 110.225 32.734C110.804 32.3887 111.448 32.216 112.157 32.216C112.754 32.216 113.277 32.314 113.725 32.51C114.182 32.706 114.57 32.9767 114.887 33.322C115.204 33.6673 115.447 34.064 115.615 34.512C115.783 34.9507 115.867 35.4267 115.867 35.94C115.867 36.0707 115.858 36.206 115.839 36.346C115.83 36.486 115.806 36.6073 115.769 36.71H109.889V35.31H114.733L113.865 35.968C113.949 35.5387 113.926 35.156 113.795 34.82C113.674 34.484 113.468 34.218 113.179 34.022C112.899 33.826 112.558 33.728 112.157 33.728C111.774 33.728 111.434 33.826 111.135 34.022C110.836 34.2087 110.608 34.4887 110.449 34.862C110.3 35.226 110.244 35.6693 110.281 36.192C110.244 36.6587 110.304 37.074 110.463 37.438C110.631 37.7927 110.874 38.068 111.191 38.264C111.518 38.46 111.891 38.558 112.311 38.558C112.731 38.558 113.086 38.4693 113.375 38.292C113.674 38.1147 113.907 37.8767 114.075 37.578L115.559 38.306C115.41 38.67 115.176 38.992 114.859 39.272C114.542 39.552 114.164 39.7713 113.725 39.93C113.296 40.0887 112.82 40.168 112.297 40.168Z" fill="#1E0F09"/>
</svg>
