<svg width="173" height="50" viewBox="0 0 173 50" fill="none" xmlns="http://www.w3.org/2000/svg">
<path d="M165.63 50H6.37037C2.86826 50 0 47.1859 0 43.75V6.25C0 2.81407 2.86826 4.76837e-06 6.37037 4.76837e-06H165.63C169.132 4.76837e-06 172 2.81407 172 6.25V43.75C172 47.1859 169.132 50 165.63 50Z" fill="white"/>
<path d="M166.593 1.00156C169.559 1.00156 171.973 3.35626 171.973 6.25V43.75C171.973 46.6438 169.559 48.9984 166.593 48.9984H6.40741C3.44078 48.9984 1.02679 46.6438 1.02679 43.75V6.25C1.02679 3.35626 3.44078 1.00156 6.40741 1.00156H166.593ZM166.593 4.76837e-06H6.40741C2.88493 4.76837e-06 0 2.81407 0 6.25V43.75C0 47.1859 2.88493 50 6.40741 50H166.593C170.115 50 173 47.1859 173 43.75V6.25C173 2.81407 170.115 4.76837e-06 166.593 4.76837e-06Z" fill="#F4F2F0"/>
<path d="M12.4107 9.42031C12.0343 9.80469 11.8164 10.4031 11.8164 11.1781V38.8219C11.8164 39.5969 12.0343 40.1953 12.4107 40.5797L12.5036 40.6641L28.3843 25.1797V24.8141L12.5036 9.32969L12.4107 9.42031Z" fill="#2196F3"/>
<path d="M35.5963 30.3438L30.3086 25.1797V24.8141L35.6027 19.65L35.7212 19.7172L41.9909 23.1969C43.7802 24.1844 43.7802 25.8094 41.9909 26.8031L35.7212 30.2766L35.5963 30.3438Z" fill="#FFC107"/>
<path d="M34.7574 31.2405L29.3448 25.9608L13.3711 41.5437C13.9654 42.153 14.9345 42.2265 16.0366 41.6171L34.7574 31.2405Z" fill="#F44336"/>
<path d="M34.7574 18.7555L16.0366 8.37891C14.9345 7.77579 13.9654 7.84922 13.3711 8.4586L29.3448 24.0352L34.7574 18.7555Z" fill="#4CAF50"/>
<path d="M56.457 19.144C55.825 19.144 55.241 19.032 54.705 18.808C54.169 18.576 53.705 18.252 53.313 17.836C52.921 17.42 52.613 16.932 52.389 16.372C52.173 15.812 52.065 15.2 52.065 14.536C52.065 13.864 52.173 13.248 52.389 12.688C52.605 12.128 52.909 11.64 53.301 11.224C53.693 10.808 54.157 10.488 54.693 10.264C55.229 10.032 55.813 9.916 56.445 9.916C57.061 9.916 57.613 10.024 58.101 10.24C58.597 10.456 59.013 10.736 59.349 11.08C59.693 11.424 59.937 11.792 60.081 12.184L59.025 12.7C58.817 12.18 58.493 11.768 58.053 11.464C57.613 11.16 57.077 11.008 56.445 11.008C55.821 11.008 55.265 11.156 54.777 11.452C54.297 11.748 53.921 12.16 53.649 12.688C53.377 13.216 53.241 13.832 53.241 14.536C53.241 15.232 53.377 15.844 53.649 16.372C53.929 16.9 54.309 17.312 54.789 17.608C55.277 17.904 55.833 18.052 56.457 18.052C57.001 18.052 57.493 17.936 57.933 17.704C58.373 17.472 58.721 17.152 58.977 16.744C59.233 16.336 59.361 15.864 59.361 15.328V14.776L59.901 15.28H56.445V14.26H60.549V15.052C60.549 15.676 60.441 16.24 60.225 16.744C60.009 17.248 59.713 17.68 59.337 18.04C58.961 18.392 58.525 18.664 58.029 18.856C57.533 19.048 57.009 19.144 56.457 19.144ZM62.1376 19V10.06H67.9576V11.14H63.3136V13.972H67.7176V15.052H63.3136V17.92H67.9576V19H62.1376ZM70.9749 19V11.14H68.5509V10.06H74.5509V11.14H72.1629V19H70.9749ZM77.7587 19V10.06H78.9347V19H77.7587ZM82.4828 19V11.14H80.0588V10.06H86.0588V11.14H83.6708V19H82.4828ZM93.5385 19.144C92.9065 19.144 92.3145 19.032 91.7625 18.808C91.2105 18.576 90.7265 18.252 90.3105 17.836C89.9025 17.42 89.5825 16.932 89.3505 16.372C89.1185 15.804 89.0025 15.188 89.0025 14.524C89.0025 13.852 89.1185 13.236 89.3505 12.676C89.5825 12.116 89.9025 11.628 90.3105 11.212C90.7265 10.796 91.2065 10.476 91.7505 10.252C92.3025 10.028 92.8985 9.916 93.5385 9.916C94.1785 9.916 94.7705 10.032 95.3145 10.264C95.8665 10.488 96.3465 10.808 96.7545 11.224C97.1705 11.632 97.4945 12.116 97.7265 12.676C97.9665 13.236 98.0865 13.852 98.0865 14.524C98.0865 15.188 97.9665 15.804 97.7265 16.372C97.4945 16.932 97.1705 17.42 96.7545 17.836C96.3465 18.252 95.8665 18.576 95.3145 18.808C94.7705 19.032 94.1785 19.144 93.5385 19.144ZM93.5385 18.052C94.0345 18.052 94.4865 17.964 94.8945 17.788C95.3025 17.604 95.6545 17.352 95.9505 17.032C96.2545 16.704 96.4865 16.328 96.6465 15.904C96.8145 15.472 96.8985 15.012 96.8985 14.524C96.8985 14.036 96.8145 13.58 96.6465 13.156C96.4865 12.732 96.2545 12.36 95.9505 12.04C95.6545 11.712 95.3025 11.46 94.8945 11.284C94.4865 11.1 94.0345 11.008 93.5385 11.008C93.0505 11.008 92.6025 11.1 92.1945 11.284C91.7865 11.46 91.4305 11.712 91.1265 12.04C90.8305 12.36 90.5985 12.732 90.4305 13.156C90.2625 13.58 90.1785 14.036 90.1785 14.524C90.1785 15.012 90.2625 15.472 90.4305 15.904C90.5985 16.328 90.8305 16.704 91.1265 17.032C91.4305 17.352 91.7865 17.604 92.1945 17.788C92.6025 17.964 93.0505 18.052 93.5385 18.052ZM99.8017 19V10.06H100.786L105.922 17.284L105.478 17.332V10.06H106.666V19H105.682L100.57 11.728L100.978 11.68V19H99.8017Z" fill="#1E0F09"/>
<path d="M57.283 40.168C56.5363 40.168 55.8457 40.0327 55.211 39.762C54.5763 39.4913 54.021 39.1133 53.545 38.628C53.069 38.1427 52.6957 37.5733 52.425 36.92C52.1637 36.2667 52.033 35.5527 52.033 34.778C52.033 34.0033 52.159 33.2893 52.411 32.636C52.6723 31.9733 53.0363 31.404 53.503 30.928C53.979 30.4427 54.5343 30.0693 55.169 29.808C55.8037 29.5373 56.4943 29.402 57.241 29.402C57.9877 29.402 58.655 29.528 59.243 29.78C59.8403 30.032 60.3443 30.368 60.755 30.788C61.1657 31.1987 61.4597 31.6513 61.637 32.146L59.943 32.958C59.747 32.4167 59.4157 31.978 58.949 31.642C58.4823 31.306 57.913 31.138 57.241 31.138C56.5877 31.138 56.009 31.292 55.505 31.6C55.0103 31.908 54.623 32.3327 54.343 32.874C54.0723 33.4153 53.937 34.05 53.937 34.778C53.937 35.506 54.077 36.1453 54.357 36.696C54.6463 37.2373 55.043 37.662 55.547 37.97C56.051 38.278 56.6297 38.432 57.283 38.432C57.815 38.432 58.305 38.3293 58.753 38.124C59.201 37.9093 59.5603 37.6107 59.831 37.228C60.1017 36.836 60.237 36.374 60.237 35.842V35.044L61.105 35.8H57.241V34.19H62.141V35.24C62.141 36.0427 62.0057 36.752 61.735 37.368C61.4643 37.984 61.0957 38.502 60.629 38.922C60.1717 39.3327 59.6537 39.6453 59.075 39.86C58.4963 40.0653 57.899 40.168 57.283 40.168ZM67.2176 40.168C66.471 40.168 65.7896 39.9953 65.1736 39.65C64.567 39.3047 64.0816 38.8333 63.7176 38.236C63.363 37.6387 63.1856 36.9573 63.1856 36.192C63.1856 35.4267 63.363 34.7453 63.7176 34.148C64.0816 33.5507 64.567 33.0793 65.1736 32.734C65.7803 32.3887 66.4616 32.216 67.2176 32.216C67.9643 32.216 68.641 32.3887 69.2476 32.734C69.8543 33.0793 70.335 33.5507 70.6896 34.148C71.0536 34.736 71.2356 35.4173 71.2356 36.192C71.2356 36.9573 71.0536 37.6387 70.6896 38.236C70.3256 38.8333 69.8403 39.3047 69.2336 39.65C68.627 39.9953 67.955 40.168 67.2176 40.168ZM67.2176 38.488C67.6283 38.488 67.9876 38.39 68.2956 38.194C68.613 37.998 68.8603 37.7273 69.0376 37.382C69.2243 37.0273 69.3176 36.6307 69.3176 36.192C69.3176 35.744 69.2243 35.352 69.0376 35.016C68.8603 34.6707 68.613 34.4 68.2956 34.204C67.9876 33.9987 67.6283 33.896 67.2176 33.896C66.7976 33.896 66.429 33.9987 66.1116 34.204C65.7943 34.4 65.5423 34.6707 65.3556 35.016C65.1783 35.352 65.0896 35.744 65.0896 36.192C65.0896 36.6307 65.1783 37.0273 65.3556 37.382C65.5423 37.7273 65.7943 37.998 66.1116 38.194C66.429 38.39 66.7976 38.488 67.2176 38.488ZM76.3505 40.168C75.6038 40.168 74.9225 39.9953 74.3065 39.65C73.6998 39.3047 73.2145 38.8333 72.8505 38.236C72.4958 37.6387 72.3185 36.9573 72.3185 36.192C72.3185 35.4267 72.4958 34.7453 72.8505 34.148C73.2145 33.5507 73.6998 33.0793 74.3065 32.734C74.9131 32.3887 75.5945 32.216 76.3505 32.216C77.0971 32.216 77.7738 32.3887 78.3805 32.734C78.9871 33.0793 79.4678 33.5507 79.8225 34.148C80.1865 34.736 80.3685 35.4173 80.3685 36.192C80.3685 36.9573 80.1865 37.6387 79.8225 38.236C79.4585 38.8333 78.9731 39.3047 78.3665 39.65C77.7598 39.9953 77.0878 40.168 76.3505 40.168ZM76.3505 38.488C76.7611 38.488 77.1205 38.39 77.4285 38.194C77.7458 37.998 77.9931 37.7273 78.1705 37.382C78.3571 37.0273 78.4505 36.6307 78.4505 36.192C78.4505 35.744 78.3571 35.352 78.1705 35.016C77.9931 34.6707 77.7458 34.4 77.4285 34.204C77.1205 33.9987 76.7611 33.896 76.3505 33.896C75.9305 33.896 75.5618 33.9987 75.2445 34.204C74.9271 34.4 74.6751 34.6707 74.4885 35.016C74.3111 35.352 74.2225 35.744 74.2225 36.192C74.2225 36.6307 74.3111 37.0273 74.4885 37.382C74.6751 37.7273 74.9271 37.998 75.2445 38.194C75.5618 38.39 75.9305 38.488 76.3505 38.488ZM85.4553 43.08C84.8859 43.08 84.3586 42.9867 83.8733 42.8C83.3879 42.6133 82.9679 42.352 82.6133 42.016C82.2679 41.6893 82.0159 41.302 81.8573 40.854L83.5653 40.21C83.6773 40.5647 83.8966 40.8493 84.2233 41.064C84.5593 41.288 84.9699 41.4 85.4553 41.4C85.8286 41.4 86.1553 41.33 86.4353 41.19C86.7246 41.05 86.9486 40.8447 87.1073 40.574C87.2659 40.3127 87.3453 39.9953 87.3453 39.622V37.886L87.6953 38.306C87.4339 38.7633 87.0839 39.1087 86.6453 39.342C86.2066 39.5753 85.7073 39.692 85.1473 39.692C84.4379 39.692 83.8033 39.5287 83.2433 39.202C82.6833 38.8753 82.2446 38.4273 81.9273 37.858C81.6099 37.2887 81.4513 36.6493 81.4513 35.94C81.4513 35.2213 81.6099 34.582 81.9273 34.022C82.2446 33.462 82.6786 33.0233 83.2293 32.706C83.7799 32.3793 84.4053 32.216 85.1053 32.216C85.6746 32.216 86.1739 32.3373 86.6033 32.58C87.0419 32.8133 87.4059 33.154 87.6953 33.602L87.4433 34.064V32.384H89.1793V39.622C89.1793 40.2847 89.0159 40.8773 88.6893 41.4C88.3719 41.9227 87.9333 42.3333 87.3733 42.632C86.8226 42.9307 86.1833 43.08 85.4553 43.08ZM85.3713 37.998C85.7633 37.998 86.1039 37.914 86.3933 37.746C86.6919 37.5687 86.9253 37.326 87.0933 37.018C87.2613 36.71 87.3453 36.3553 87.3453 35.954C87.3453 35.562 87.2566 35.212 87.0793 34.904C86.9113 34.5867 86.6779 34.3393 86.3793 34.162C86.0899 33.9847 85.7539 33.896 85.3713 33.896C84.9886 33.896 84.6433 33.9847 84.3353 34.162C84.0273 34.3393 83.7846 34.5867 83.6073 34.904C83.4393 35.212 83.3553 35.562 83.3553 35.954C83.3553 36.346 83.4393 36.696 83.6073 37.004C83.7846 37.312 84.0226 37.5547 84.3213 37.732C84.6293 37.9093 84.9793 37.998 85.3713 37.998ZM90.8921 40V29.402H92.7261V40H90.8921ZM98.0314 40.168C97.2474 40.168 96.5614 39.9907 95.9734 39.636C95.3854 39.2813 94.9281 38.8007 94.6014 38.194C94.2748 37.5873 94.1114 36.9153 94.1114 36.178C94.1114 35.4127 94.2748 34.736 94.6014 34.148C94.9374 33.5507 95.3901 33.0793 95.9594 32.734C96.5381 32.3887 97.1821 32.216 97.8914 32.216C98.4888 32.216 99.0114 32.314 99.4594 32.51C99.9168 32.706 100.304 32.9767 100.621 33.322C100.939 33.6673 101.181 34.064 101.349 34.512C101.517 34.9507 101.601 35.4267 101.601 35.94C101.601 36.0707 101.592 36.206 101.573 36.346C101.564 36.486 101.541 36.6073 101.503 36.71H95.6234V35.31H100.467L99.5994 35.968C99.6834 35.5387 99.6601 35.156 99.5294 34.82C99.4081 34.484 99.2028 34.218 98.9134 34.022C98.6334 33.826 98.2928 33.728 97.8914 33.728C97.5088 33.728 97.1681 33.826 96.8694 34.022C96.5708 34.2087 96.3421 34.4887 96.1834 34.862C96.0341 35.226 95.9781 35.6693 96.0154 36.192C95.9781 36.6587 96.0388 37.074 96.1974 37.438C96.3654 37.7927 96.6081 38.068 96.9254 38.264C97.2521 38.46 97.6254 38.558 98.0454 38.558C98.4654 38.558 98.8201 38.4693 99.1094 38.292C99.4081 38.1147 99.6414 37.8767 99.8094 37.578L101.293 38.306C101.144 38.67 100.911 38.992 100.593 39.272C100.276 39.552 99.8981 39.7713 99.4594 39.93C99.0301 40.0887 98.5541 40.168 98.0314 40.168ZM105.634 40V29.57H109.526C110.235 29.57 110.861 29.7007 111.402 29.962C111.953 30.214 112.382 30.5873 112.69 31.082C112.998 31.5673 113.152 32.16 113.152 32.86C113.152 33.5507 112.993 34.1433 112.676 34.638C112.368 35.1233 111.943 35.4967 111.402 35.758C110.861 36.0193 110.235 36.15 109.526 36.15H107.538V40H105.634ZM107.538 34.47H109.554C109.899 34.47 110.198 34.4047 110.45 34.274C110.702 34.134 110.898 33.9427 111.038 33.7C111.178 33.4573 111.248 33.1773 111.248 32.86C111.248 32.5333 111.178 32.2533 111.038 32.02C110.898 31.7773 110.702 31.5907 110.45 31.46C110.198 31.32 109.899 31.25 109.554 31.25H107.538V34.47ZM114.558 40V29.402H116.392V40H114.558ZM120.395 40.168C119.863 40.168 119.401 40.0793 119.009 39.902C118.617 39.7247 118.314 39.4727 118.099 39.146C117.885 38.81 117.777 38.4227 117.777 37.984C117.777 37.564 117.871 37.1907 118.057 36.864C118.244 36.528 118.533 36.248 118.925 36.024C119.317 35.8 119.812 35.6413 120.409 35.548L122.901 35.142V36.542L120.759 36.906C120.395 36.9713 120.125 37.088 119.947 37.256C119.77 37.424 119.681 37.6433 119.681 37.914C119.681 38.1753 119.779 38.3853 119.975 38.544C120.181 38.6933 120.433 38.768 120.731 38.768C121.114 38.768 121.45 38.6887 121.739 38.53C122.038 38.362 122.267 38.1333 122.425 37.844C122.593 37.5547 122.677 37.2373 122.677 36.892V34.932C122.677 34.6053 122.547 34.3347 122.285 34.12C122.033 33.896 121.697 33.784 121.277 33.784C120.885 33.784 120.535 33.8913 120.227 34.106C119.929 34.3113 119.709 34.5867 119.569 34.932L118.071 34.204C118.221 33.8027 118.454 33.4573 118.771 33.168C119.098 32.8693 119.481 32.636 119.919 32.468C120.358 32.3 120.834 32.216 121.347 32.216C121.973 32.216 122.523 32.3327 122.999 32.566C123.475 32.79 123.844 33.1073 124.105 33.518C124.376 33.9193 124.511 34.3907 124.511 34.932V40H122.775V38.698L123.167 38.67C122.971 38.9967 122.738 39.272 122.467 39.496C122.197 39.7107 121.889 39.8787 121.543 40C121.198 40.112 120.815 40.168 120.395 40.168ZM127.131 43.094C126.925 43.094 126.725 43.0753 126.529 43.038C126.333 43.01 126.155 42.9587 125.997 42.884V41.344C126.118 41.372 126.263 41.4 126.431 41.428C126.608 41.456 126.771 41.47 126.921 41.47C127.341 41.47 127.644 41.372 127.831 41.176C128.027 40.98 128.199 40.7233 128.349 40.406L128.853 39.23L128.825 40.77L125.507 32.384H127.481L129.805 38.572H129.105L131.415 32.384H133.403L130.085 40.77C129.889 41.2647 129.651 41.6847 129.371 42.03C129.091 42.3753 128.764 42.6367 128.391 42.814C128.027 43.0007 127.607 43.094 127.131 43.094Z" fill="#1E0F09"/>
</svg>
